<svg id="visual" viewBox="0 0 900 600" width="900" height="600" xmlns="http://www.w3.org/2000/svg" xmlns:xlink="http://www.w3.org/1999/xlink" version="1.1"><rect x="0" y="0" width="900" height="600" fill="#001220"></rect><path d="M0 339L25 362.5C50 386 100 433 150 433.2C200 433.3 250 386.7 300 360.5C350 334.3 400 328.7 450 344C500 359.3 550 395.7 600 395.8C650 396 700 360 750 340.3C800 320.7 850 317.3 875 315.7L900 314L900 601L875 601C850 601 800 601 750 601C700 601 650 601 600 601C550 601 500 601 450 601C400 601 350 601 300 601C250 601 200 601 150 601C100 601 50 601 25 601L0 601Z" fill="#c62368"></path><path d="M0 422L25 434.7C50 447.3 100 472.7 150 479.8C200 487 250 476 300 461C350 446 400 427 450 420.3C500 413.7 550 419.3 600 431.7C650 444 700 463 750 463.7C800 464.3 850 446.7 875 437.8L900 429L900 601L875 601C850 601 800 601 750 601C700 601 650 601 600 601C550 601 500 601 450 601C400 601 350 601 300 601C250 601 200 601 150 601C100 601 50 601 25 601L0 601Z" fill="#da3f67"></path><path d="M0 479L25 481.8C50 484.7 100 490.3 150 489.2C200 488 250 480 300 482.8C350 485.7 400 499.3 450 507.8C500 516.3 550 519.7 600 516.5C650 513.3 700 503.7 750 506.8C800 510 850 526 875 534L900 542L900 601L875 601C850 601 800 601 750 601C700 601 650 601 600 601C550 601 500 601 450 601C400 601 350 601 300 601C250 601 200 601 150 601C100 601 50 601 25 601L0 601Z" fill="#eb5967"></path><path d="M0 541L25 532.7C50 524.3 100 507.7 150 515C200 522.3 250 553.7 300 562.5C350 571.3 400 557.7 450 558.3C500 559 550 574 600 575.8C650 577.7 700 566.3 750 562.2C800 558 850 561 875 562.5L900 564L900 601L875 601C850 601 800 601 750 601C700 601 650 601 600 601C550 601 500 601 450 601C400 601 350 601 300 601C250 601 200 601 150 601C100 601 50 601 25 601L0 601Z" fill="#fa7268"></path></svg>